name C:\Users\u0101727\Documents\MyRepositories\paper-ad\predictivesimulations_2d/Results/PredSim_2D/IK_c13.mot
datacolumns 11
datarows 17
range 0.63316903 0.78666456
endheader
time	pelvis_tilt	pelvis_tx	pelvis_ty	hip_flexion_l	hip_flexion_r	knee_angle_l	knee_angle_r	ankle_angle_l	ankle_angle_r	lumbar_extension	
          0.63316903	        -15.07448350	          0.85494094	          0.89986713	         25.71473405	         11.39261833	        -10.65479311	        -40.88754607	          8.50083669	         -0.30890813	         10.33148018	
          0.64276251	        -15.09157153	          0.86691344	          0.90130417	         24.79600249	         12.66540648	        -10.40788371	        -41.78398939	          8.60335444	          0.66739309	         10.29313503	
          0.65235598	        -15.10617503	          0.87883013	          0.90249758	         23.86199834	         13.97064176	        -10.13613083	        -42.57252136	          8.74663427	          1.72363233	         10.25079959	
          0.66194945	        -15.11828292	          0.89069864	          0.90345060	         22.91715230	         15.30330474	         -9.84734008	        -43.24501715	          8.92481077	          2.84214004	         10.20479971	
          0.67154292	        -15.12801942	          0.90252629	          0.90417387	         21.96535701	         16.65742158	         -9.54856307	        -43.79394263	          9.13138364	          4.00510509	         10.15561208	
          0.68113639	        -15.13554515	          0.91431929	          0.90468437	         21.01079293	         18.02717369	         -9.24736977	        -44.21160257	          9.35867593	          5.19468539	         10.10366170	
          0.69072986	        -15.14100083	          0.92608318	          0.90500290	         20.05802937	         19.40706527	         -8.95161251	        -44.49019919	          9.59865701	          6.39306930	         10.04929040	
          0.70032333	        -15.14453335	          0.93782394	          0.90515091	         19.11186824	         20.79060642	         -8.66966278	        -44.62278784	          9.84339281	          7.58247048	          9.99287816	
          0.70991680	        -15.14636433	          0.94954862	          0.90514867	         18.17553430	         22.17087897	         -8.40712712	        -44.60372764	         10.08555655	          8.74522176	          9.93496040	
          0.71951027	        -15.14681043	          0.96126554	          0.90501434	         17.24984439	         23.54101354	         -8.16528930	        -44.42893963	         10.31850907	          9.86395558	          9.87627613	
          0.72910374	        -15.14615194	          0.97298348	          0.90476342	         16.33621617	         24.89309482	         -7.94697624	        -44.09648337	         10.53546419	         10.92192815	          9.81756029	
          0.73869721	        -15.14463405	          0.98471062	          0.90440901	         15.43678708	         26.21917998	         -7.75578510	        -43.60540390	         10.73035255	         11.90369362	          9.75943327	
          0.74829068	        -15.14249827	          0.99645600	          0.90396182	         14.55314113	         27.51049318	         -7.59473476	        -42.95866293	         10.89854468	         12.79585657	          9.70262539	
          0.75788415	        -15.14000338	          1.00822811	          0.90343091	         13.68620015	         28.75897572	         -7.46586758	        -42.16084031	         11.03709452	         13.58818566	          9.64783463	
          0.76747762	        -15.13741301	          1.02003353	          0.90282435	         12.83683156	         29.95845298	         -7.37025465	        -41.21626323	         11.14487702	         14.27460243	          9.59554410	
          0.77707109	        -15.13496562	          1.03187858	          0.90214862	         12.00575750	         31.10318650	         -7.30960080	        -40.13167432	         11.22261430	         14.85350809	          9.54619596	
          0.78666456	        -15.13288385	          1.04376761	          0.90140904	         11.19329538	         32.19023932	         -7.28481296	        -38.91257383	         11.27312932	         15.32772827	          9.49997962	
